<svg width="10" height="19" viewBox="0 0 10 19" fill="none" xmlns="http://www.w3.org/2000/svg">
<path d="M8.29211 17.8011C8.68221 18.192 9.31537 18.1927 9.70633 17.8026C10.0973 17.4125 10.098 16.7794 9.70789 16.3884L8.29211 17.8011ZM9.70789 1.76577C10.098 1.37482 10.0973 0.74165 9.70633 0.351557C9.31537 -0.038538 8.68221 -0.0378399 8.29212 0.353115L9.70789 1.76577ZM9.70789 16.3884L2.41266 9.07708L0.99689 10.4897L8.29211 17.8011L9.70789 16.3884ZM2.41266 9.07708L9.70789 1.76577L8.29212 0.353115L0.996891 7.66443L2.41266 9.07708ZM2.41266 9.07708L2.41266 9.07708L0.996891 7.66443C0.21792 8.44512 0.217916 9.70904 0.99689 10.4897L2.41266 9.07708Z" fill="white"/>
</svg>
