<svg width="124" height="27" viewBox="0 0 124 27" fill="none" xmlns="http://www.w3.org/2000/svg">
<rect x="86.1719" y="5.50098" width="37.5864" height="15.3414" rx="4.79418" fill="#7E48D9"/>
<path d="M94.2452 16.501H96.6048C96.9419 16.501 97.254 16.4588 97.5412 16.3746C97.8314 16.2872 98.0811 16.1592 98.2903 15.9907C98.4994 15.8252 98.6632 15.6192 98.7819 15.3727C98.9005 15.1261 98.9582 14.8405 98.9551 14.5159C98.9551 14.3317 98.9286 14.1569 98.8755 13.9915C98.8256 13.823 98.7506 13.67 98.6508 13.5327C98.554 13.4047 98.4338 13.2908 98.2903 13.1909C98.1467 13.0879 97.9735 13.0099 97.7706 12.9568V12.9475C97.9079 12.8913 98.0281 12.8289 98.1311 12.7602C98.2372 12.6884 98.3324 12.6057 98.4167 12.5121C98.5353 12.3841 98.6258 12.2374 98.6882 12.072C98.7538 11.9034 98.7881 11.7224 98.7912 11.5289C98.7912 11.2105 98.7304 10.9359 98.6086 10.7049C98.49 10.4708 98.3246 10.2788 98.1124 10.129C97.9001 9.9792 97.6489 9.8684 97.3586 9.79661C97.0683 9.7217 96.7577 9.68425 96.4269 9.68425H94.2452V16.501ZM95.3782 13.4203H96.6704C96.8545 13.4235 97.0184 13.4516 97.1619 13.5046C97.3055 13.5546 97.4272 13.6263 97.5271 13.72C97.627 13.8136 97.7019 13.9275 97.7519 14.0617C97.8018 14.1928 97.8268 14.3442 97.8268 14.5159C97.8268 14.6782 97.7956 14.8264 97.7331 14.9607C97.6738 15.0917 97.588 15.2026 97.4756 15.2931C97.3726 15.3805 97.2478 15.4491 97.1011 15.4991C96.9544 15.549 96.7921 15.574 96.6142 15.574H95.3782V13.4203ZM95.3782 12.5636V10.6159H96.4409C96.6345 10.6191 96.8108 10.6425 96.97 10.6862C97.1292 10.7267 97.2618 10.7938 97.3679 10.8875C97.4616 10.9624 97.5334 11.0591 97.5833 11.1777C97.6364 11.2932 97.6629 11.4306 97.6629 11.5897C97.6629 11.7396 97.6348 11.8722 97.5786 11.9877C97.5224 12.1032 97.446 12.2015 97.3492 12.2827C97.2431 12.3732 97.112 12.4418 96.9559 12.4887C96.803 12.5355 96.6345 12.5604 96.4503 12.5636H95.3782ZM104.021 13.4437V12.5355H101.202V10.6159H104.47V9.68425H100.074V16.501H104.494V15.574H101.202V13.4437H104.021ZM110.608 10.6159V9.68425H105.299V10.6159H107.387V16.501H108.506V10.6159H110.608ZM114.84 14.9326L115.299 16.501H116.465L114.283 9.68425H113.286L111.067 16.501H112.237L112.701 14.9326H114.84ZM112.986 13.9681L113.782 11.2714L114.564 13.9681H112.986Z" fill="white"/>
<path d="M29.7178 6.96729H26.6898V12.3361C25.8952 11.3482 24.7785 10.8328 23.3611 10.8328C22.3732 10.8328 21.4928 11.0691 20.7196 11.5415C19.9465 12.014 19.3237 12.6582 18.8942 13.5173C18.4647 14.3763 18.25 15.3427 18.25 16.4594C18.25 17.5976 18.4647 18.5854 18.8942 19.4444C19.3237 20.3035 19.9465 20.9692 20.7196 21.4416C21.4928 21.9141 22.3518 22.1289 23.3396 22.1289C24.7785 22.1289 25.9167 21.592 26.7757 20.4753L27.0763 22H29.7178V6.96729ZM26.0026 18.8002C25.5086 19.38 24.8644 19.6592 24.0483 19.6592C23.2323 19.6592 22.5665 19.38 22.0726 18.7787C21.5787 18.1989 21.3424 17.4258 21.3424 16.4808C21.3424 15.5359 21.5787 14.7843 22.0726 14.183C22.5665 13.6032 23.2323 13.3025 24.0483 13.3025C24.8644 13.3025 25.5086 13.6032 26.0026 14.183C26.475 14.7843 26.7327 15.5574 26.7327 16.5023C26.7327 17.4472 26.475 18.2203 26.0026 18.8002ZM34.1483 21.4416C35.0287 21.9141 36.0596 22.1289 37.2192 22.1289C38.3789 22.1289 39.3882 21.9141 40.2687 21.4416C41.1492 20.9692 41.8364 20.3249 42.3089 19.4659C42.7813 18.6069 43.039 17.619 43.039 16.4808C43.039 15.3641 42.7813 14.3763 42.3089 13.5173C41.8364 12.6582 41.1492 12.014 40.2687 11.5415C39.3882 11.0691 38.3789 10.8328 37.2192 10.8328C36.0596 10.8328 35.0287 11.0691 34.1483 11.5415C33.2678 12.014 32.5806 12.6582 32.1081 13.5173C31.6356 14.3763 31.3994 15.3641 31.3994 16.4808C31.3994 17.5976 31.6356 18.5854 32.1081 19.4444C32.5806 20.3035 33.2678 20.9692 34.1483 21.4416ZM39.2164 18.7787C38.7225 19.38 38.0568 19.6592 37.2192 19.6592C36.3817 19.6592 35.7159 19.38 35.222 18.7787C34.7281 18.1989 34.4919 17.4258 34.4919 16.4808C34.4919 15.5359 34.7281 14.7843 35.222 14.183C35.7159 13.6032 36.3817 13.3025 37.2192 13.3025C38.0568 13.3025 38.7225 13.6032 39.2164 14.183C39.7104 14.7843 39.9681 15.5359 39.9681 16.4808C39.9681 17.4258 39.7104 18.1989 39.2164 18.7787ZM51.4275 10.9617H50.9121C50.096 10.9617 49.4303 11.112 48.9578 11.3912C48.4639 11.6704 48.0559 12.0784 47.7337 12.6153L47.4546 10.9617H44.7057V22H47.7337V16.5882C47.7337 15.7077 47.927 14.9991 48.335 14.4836C48.7216 13.9682 49.3659 13.7105 50.2249 13.7105H51.4275V10.9617ZM55.0399 18.3277H52.1622C52.2051 19.5089 52.7205 20.4323 53.6869 21.1195C54.6318 21.8067 55.8774 22.1289 57.4236 22.1289C58.4115 22.1289 59.2705 22 60.0221 21.6993C60.7738 21.3987 61.3536 20.9907 61.7831 20.4323C62.2126 19.8954 62.4274 19.2726 62.4274 18.5425C62.4274 17.4258 62.0193 16.6312 61.2248 16.1587C60.4302 15.6863 59.292 15.3641 57.8102 15.1923C57.1015 15.1279 56.6076 15.0635 56.3069 14.9991C56.0063 14.9561 55.7485 14.8487 55.5767 14.7199C55.3835 14.591 55.2976 14.3977 55.2976 14.14C55.2976 13.7964 55.4694 13.4958 55.813 13.281C56.1566 13.0663 56.629 12.9589 57.2089 12.9589C57.8102 12.9589 58.3256 13.1092 58.7121 13.3669C59.0987 13.6246 59.3349 13.9682 59.3779 14.3763H62.2556C62.1697 13.2596 61.6757 12.4005 60.7523 11.7563C59.8289 11.1335 58.6262 10.8114 57.123 10.7899C56.1781 10.7899 55.362 10.9402 54.6533 11.2409C53.9231 11.5415 53.3648 11.971 52.9782 12.5294C52.5917 13.0877 52.3984 13.7105 52.3984 14.4192C52.3984 15.1494 52.5917 15.7077 52.9782 16.1372C53.3648 16.5667 53.8802 16.8889 54.5245 17.0822C55.1687 17.2969 55.9633 17.4472 56.9512 17.5761C57.6599 17.662 58.1753 17.7479 58.4974 17.8123C58.798 17.8767 59.0557 17.9841 59.2275 18.113C59.3994 18.2633 59.4853 18.478 59.4853 18.7572C59.4853 19.1438 59.292 19.4444 58.9269 19.6592C58.5403 19.8739 58.0464 19.9598 57.4021 19.9598C56.7149 19.9598 56.1781 19.8095 55.7485 19.5089C55.319 19.2082 55.0828 18.8217 55.0399 18.3277ZM64.4254 13.5173C63.953 14.3763 63.7382 15.3641 63.7382 16.5023C63.7382 17.6405 63.9744 18.6284 64.4469 19.4874C64.9193 20.3464 65.6066 20.9907 66.5085 21.4416C67.4105 21.9141 68.4628 22.1289 69.7083 22.1289C70.6532 22.1289 71.4908 21.9785 72.2209 21.6349C72.9511 21.2913 73.5309 20.8403 73.9819 20.239C74.4114 19.6592 74.6906 18.9935 74.8195 18.2633H71.8344C71.7055 18.7787 71.4264 19.1867 71.0183 19.4444C70.6103 19.7021 70.0949 19.831 69.4936 19.831C68.7205 19.831 68.0977 19.6162 67.6682 19.1438C67.2172 18.6928 66.9595 18.07 66.8951 17.254V17.1681H74.9054C74.9483 16.8674 74.9913 16.5238 74.9913 16.1372C74.9698 15.0635 74.7121 14.14 74.2396 13.3455C73.7672 12.5509 73.1014 11.9281 72.2424 11.4986C71.3834 11.0691 70.417 10.8328 69.3003 10.8328C68.1836 10.8328 67.2172 11.0691 66.3797 11.5415C65.5421 12.014 64.8979 12.6582 64.4254 13.5173ZM71.9632 15.1923H66.9595C67.0454 14.5481 67.3031 14.0541 67.7541 13.6676C68.2051 13.281 68.7634 13.0877 69.4292 13.0877C70.1164 13.0877 70.6747 13.281 71.1257 13.6461C71.5767 14.0112 71.8559 14.5266 71.9632 15.1923ZM74.9688 24.9206H83.6448V22.1289H74.9688V24.9206Z" fill="white"/>
<path d="M12.7331 13.8829C12.7331 13.9985 12.7331 14.1141 12.7331 14.2875C12.7331 17.062 10.4962 19.3741 7.68578 19.3741C5.62094 19.3741 3.78553 18.1024 3.03989 16.2528C3.03989 16.1371 3.03989 16.0793 3.03989 15.9637C3.03989 13.1892 5.27679 10.8772 8.08726 10.8772C10.1521 10.8772 11.9302 12.091 12.7331 13.8829L12.6758 3.47852C5.67829 3.47852 0 9.20091 0 16.2528H2.92517V26.6571C9.92267 26.6571 15.601 20.9347 15.601 13.8829H12.7331Z" fill="url(#paint0_linear_3621_23474)"/>
<defs>
<linearGradient id="paint0_linear_3621_23474" x1="7.80049" y1="3.47852" x2="7.80049" y2="26.6571" gradientUnits="userSpaceOnUse">
<stop stop-color="#5660E5"/>
<stop offset="1" stop-color="#B028C8"/>
</linearGradient>
</defs>
</svg>
