<svg width="124" height="24" viewBox="0 0 124 24" fill="none" xmlns="http://www.w3.org/2000/svg">
<rect x="86.1719" y="2.50098" width="37.5864" height="15.3414" rx="4.79418" fill="#7E48D9"/>
<path d="M94.2491 13.501H96.6087C96.9458 13.501 97.2579 13.4588 97.5451 13.3746C97.8354 13.2872 98.085 13.1592 98.2942 12.9907C98.5033 12.8252 98.6672 12.6192 98.7858 12.3727C98.9044 12.1261 98.9621 11.8405 98.959 11.5159C98.959 11.3317 98.9325 11.1569 98.8794 10.9915C98.8295 10.823 98.7545 10.67 98.6547 10.5327C98.5579 10.4047 98.4377 10.2908 98.2942 10.1909C98.1506 10.0879 97.9774 10.0099 97.7745 9.95684V9.94748C97.9118 9.89129 98.032 9.82887 98.135 9.7602C98.2411 9.68842 98.3363 9.6057 98.4206 9.51207C98.5392 9.3841 98.6297 9.2374 98.6921 9.07198C98.7577 8.90343 98.792 8.7224 98.7951 8.52889C98.7951 8.21052 98.7343 7.93585 98.6125 7.70489C98.4939 7.47079 98.3285 7.27884 98.1163 7.12902C97.904 6.9792 97.6528 6.8684 97.3625 6.79661C97.0722 6.7217 96.7617 6.68425 96.4308 6.68425H94.2491V13.501ZM95.3821 10.4203H96.6743C96.8584 10.4235 97.0223 10.4516 97.1659 10.5046C97.3094 10.5546 97.4312 10.6263 97.531 10.72C97.6309 10.8136 97.7058 10.9275 97.7558 11.0617C97.8057 11.1928 97.8307 11.3442 97.8307 11.5159C97.8307 11.6782 97.7995 11.8264 97.737 11.9607C97.6777 12.0917 97.5919 12.2026 97.4795 12.2931C97.3765 12.3805 97.2517 12.4491 97.105 12.4991C96.9583 12.549 96.796 12.574 96.6181 12.574H95.3821V10.4203ZM95.3821 9.56357V7.61593H96.4449C96.6384 7.61905 96.8147 7.64246 96.9739 7.68616C97.1331 7.72673 97.2657 7.79384 97.3719 7.88748C97.4655 7.96239 97.5373 8.05914 97.5872 8.17775C97.6403 8.29323 97.6668 8.43057 97.6668 8.58975C97.6668 8.73957 97.6387 8.87222 97.5825 8.9877C97.5264 9.10319 97.4499 9.20151 97.3531 9.28266C97.247 9.37317 97.1159 9.44184 96.9599 9.48866C96.8069 9.53548 96.6384 9.56045 96.4542 9.56357H95.3821ZM104.025 10.4437V9.53548H101.206V7.61593H104.474V6.68425H100.078V13.501H104.498V12.574H101.206V10.4437H104.025ZM110.612 7.61593V6.68425H105.303V7.61593H107.391V13.501H108.51V7.61593H110.612ZM114.844 11.9326L115.303 13.501H116.469L114.287 6.68425H113.29L111.071 13.501H112.241L112.705 11.9326H114.844ZM112.99 10.9681L113.786 8.27139L114.568 10.9681H112.99Z" fill="white"/>
<path d="M29.7178 3.96729H26.6898V9.33611C25.8952 8.34825 24.7785 7.83284 23.3611 7.83284C22.3732 7.83284 21.4928 8.06907 20.7196 8.54153C19.9465 9.01398 19.3237 9.65824 18.8942 10.5173C18.4647 11.3763 18.25 12.3427 18.25 13.4594C18.25 14.5976 18.4647 15.5854 18.8942 16.4444C19.3237 17.3035 19.9465 17.9692 20.7196 18.4416C21.4928 18.9141 22.3518 19.1289 23.3396 19.1289C24.7785 19.1289 25.9167 18.592 26.7757 17.4753L27.0763 19H29.7178V3.96729ZM26.0026 15.8002C25.5086 16.38 24.8644 16.6592 24.0483 16.6592C23.2323 16.6592 22.5665 16.38 22.0726 15.7787C21.5787 15.1989 21.3424 14.4258 21.3424 13.4808C21.3424 12.5359 21.5787 11.7843 22.0726 11.183C22.5665 10.6032 23.2323 10.3025 24.0483 10.3025C24.8644 10.3025 25.5086 10.6032 26.0026 11.183C26.475 11.7843 26.7327 12.5574 26.7327 13.5023C26.7327 14.4472 26.475 15.2203 26.0026 15.8002ZM34.1483 18.4416C35.0287 18.9141 36.0596 19.1289 37.2192 19.1289C38.3789 19.1289 39.3882 18.9141 40.2687 18.4416C41.1492 17.9692 41.8364 17.3249 42.3089 16.4659C42.7813 15.6069 43.039 14.619 43.039 13.4808C43.039 12.3641 42.7813 11.3763 42.3089 10.5173C41.8364 9.65824 41.1492 9.01398 40.2687 8.54153C39.3882 8.06907 38.3789 7.83284 37.2192 7.83284C36.0596 7.83284 35.0287 8.06907 34.1483 8.54153C33.2678 9.01398 32.5806 9.65824 32.1081 10.5173C31.6356 11.3763 31.3994 12.3641 31.3994 13.4808C31.3994 14.5976 31.6356 15.5854 32.1081 16.4444C32.5806 17.3035 33.2678 17.9692 34.1483 18.4416ZM39.2164 15.7787C38.7225 16.38 38.0568 16.6592 37.2192 16.6592C36.3817 16.6592 35.7159 16.38 35.222 15.7787C34.7281 15.1989 34.4919 14.4258 34.4919 13.4808C34.4919 12.5359 34.7281 11.7843 35.222 11.183C35.7159 10.6032 36.3817 10.3025 37.2192 10.3025C38.0568 10.3025 38.7225 10.6032 39.2164 11.183C39.7104 11.7843 39.9681 12.5359 39.9681 13.4808C39.9681 14.4258 39.7104 15.1989 39.2164 15.7787ZM51.4275 7.96169H50.9121C50.096 7.96169 49.4303 8.11202 48.9578 8.3912C48.4639 8.67038 48.0559 9.07841 47.7337 9.61529L47.4546 7.96169H44.7057V19H47.7337V13.5882C47.7337 12.7077 47.927 11.9991 48.335 11.4836C48.7216 10.9682 49.3659 10.7105 50.2249 10.7105H51.4275V7.96169ZM55.0399 15.3277H52.1622C52.2051 16.5089 52.7205 17.4323 53.6869 18.1195C54.6318 18.8067 55.8774 19.1289 57.4236 19.1289C58.4115 19.1289 59.2705 19 60.0221 18.6993C60.7738 18.3987 61.3536 17.9907 61.7831 17.4323C62.2126 16.8954 62.4274 16.2726 62.4274 15.5425C62.4274 14.4258 62.0193 13.6312 61.2248 13.1587C60.4302 12.6863 59.292 12.3641 57.8102 12.1923C57.1015 12.1279 56.6076 12.0635 56.3069 11.9991C56.0063 11.9561 55.7485 11.8487 55.5767 11.7199C55.3835 11.591 55.2976 11.3977 55.2976 11.14C55.2976 10.7964 55.4694 10.4958 55.813 10.281C56.1566 10.0663 56.629 9.9589 57.2089 9.9589C57.8102 9.9589 58.3256 10.1092 58.7121 10.3669C59.0987 10.6246 59.3349 10.9682 59.3779 11.3763H62.2556C62.1697 10.2596 61.6757 9.40054 60.7523 8.75628C59.8289 8.13349 58.6262 7.81137 57.123 7.78989C56.1781 7.78989 55.362 7.94022 54.6533 8.24087C53.9231 8.54153 53.3648 8.97103 52.9782 9.52939C52.5917 10.0877 52.3984 10.7105 52.3984 11.4192C52.3984 12.1494 52.5917 12.7077 52.9782 13.1372C53.3648 13.5667 53.8802 13.8889 54.5245 14.0822C55.1687 14.2969 55.9633 14.4472 56.9512 14.5761C57.6599 14.662 58.1753 14.7479 58.4974 14.8123C58.798 14.8767 59.0557 14.9841 59.2275 15.113C59.3994 15.2633 59.4853 15.478 59.4853 15.7572C59.4853 16.1438 59.292 16.4444 58.9269 16.6592C58.5403 16.8739 58.0464 16.9598 57.4021 16.9598C56.7149 16.9598 56.1781 16.8095 55.7485 16.5089C55.319 16.2082 55.0828 15.8217 55.0399 15.3277ZM64.4254 10.5173C63.953 11.3763 63.7382 12.3641 63.7382 13.5023C63.7382 14.6405 63.9744 15.6284 64.4469 16.4874C64.9193 17.3464 65.6066 17.9907 66.5085 18.4416C67.4105 18.9141 68.4628 19.1289 69.7083 19.1289C70.6532 19.1289 71.4908 18.9785 72.2209 18.6349C72.9511 18.2913 73.5309 17.8403 73.9819 17.239C74.4114 16.6592 74.6906 15.9935 74.8195 15.2633H71.8344C71.7055 15.7787 71.4264 16.1867 71.0183 16.4444C70.6103 16.7021 70.0949 16.831 69.4936 16.831C68.7205 16.831 68.0977 16.6162 67.6682 16.1438C67.2172 15.6928 66.9595 15.07 66.8951 14.254V14.1681H74.9054C74.9483 13.8674 74.9913 13.5238 74.9913 13.1372C74.9698 12.0635 74.7121 11.14 74.2396 10.3455C73.7672 9.55086 73.1014 8.92808 72.2424 8.49858C71.3834 8.06907 70.417 7.83284 69.3003 7.83284C68.1836 7.83284 67.2172 8.06907 66.3797 8.54153C65.5421 9.01398 64.8979 9.65824 64.4254 10.5173ZM71.9632 12.1923H66.9595C67.0454 11.5481 67.3031 11.0541 67.7541 10.6676C68.2051 10.281 68.7634 10.0877 69.4292 10.0877C70.1164 10.0877 70.6747 10.281 71.1257 10.6461C71.5767 11.0112 71.8559 11.5266 71.9632 12.1923ZM74.9688 21.9206H83.6448V19.1289H74.9688V21.9206Z" fill="white"/>
<path d="M12.7331 10.8829C12.7331 10.9985 12.7331 11.1141 12.7331 11.2875C12.7331 14.062 10.4962 16.3741 7.68578 16.3741C5.62094 16.3741 3.78553 15.1024 3.03989 13.2528C3.03989 13.1371 3.03989 13.0793 3.03989 12.9637C3.03989 10.1892 5.27679 7.87717 8.08726 7.87717C10.1521 7.87717 11.9302 9.09101 12.7331 10.8829L12.6758 0.478516C5.67829 0.478516 0 6.20091 0 13.2528H2.92517V23.6571C9.92267 23.6571 15.601 17.9347 15.601 10.8829H12.7331Z" fill="url(#paint0_linear_1413_11917)"/>
<defs>
<linearGradient id="paint0_linear_1413_11917" x1="7.80049" y1="0.478516" x2="7.80049" y2="23.6571" gradientUnits="userSpaceOnUse">
<stop stop-color="#5660E5"/>
<stop offset="1" stop-color="#B028C8"/>
</linearGradient>
</defs>
</svg>
