<svg width="16" height="17" viewBox="0 0 16 17" fill="none" xmlns="http://www.w3.org/2000/svg">
<path d="M7.26811 9.42093V9.3672C7.27408 8.79705 7.33379 8.34333 7.44722 8.00602C7.56065 7.66871 7.72184 7.39558 7.93079 7.18663C8.13975 6.97767 8.39049 6.78514 8.68302 6.60902C8.85914 6.50156 9.01735 6.3747 9.15764 6.22843C9.29794 6.07918 9.40839 5.90754 9.48898 5.71351C9.57256 5.51948 9.61435 5.30456 9.61435 5.06874C9.61435 4.77621 9.5457 4.52248 9.40839 4.30756C9.27107 4.09264 9.08749 3.92697 8.85765 3.81055C8.6278 3.69413 8.37258 3.63593 8.09198 3.63593C7.84721 3.63593 7.61139 3.68667 7.38453 3.78816C7.15767 3.88965 6.96812 4.04935 6.81588 4.26726C6.66364 4.48517 6.57559 4.77024 6.55171 5.12247H5.42336C5.44724 4.61502 5.57858 4.18069 5.81739 3.81951C6.05917 3.45832 6.37708 3.1822 6.77111 2.99116C7.16812 2.80011 7.60841 2.70459 8.09198 2.70459C8.61735 2.70459 9.07406 2.80907 9.46212 3.01802C9.85316 3.22698 10.1546 3.51354 10.3666 3.87771C10.5815 4.24189 10.689 4.65681 10.689 5.12247C10.689 5.45083 10.6382 5.74784 10.5367 6.01351C10.4382 6.27918 10.2949 6.51649 10.1069 6.72544C9.92181 6.93439 9.69793 7.11946 9.43525 7.28066C9.17257 7.44483 8.96212 7.61797 8.80392 7.80005C8.64571 7.97915 8.53078 8.19258 8.45914 8.44034C8.3875 8.6881 8.3487 8.99705 8.34273 9.3672V9.42093H7.26811ZM7.84124 12.0716C7.62035 12.0716 7.4308 11.9925 7.27259 11.8343C7.11438 11.6761 7.03528 11.4866 7.03528 11.2657C7.03528 11.0448 7.11438 10.8552 7.27259 10.697C7.4308 10.5388 7.62035 10.4597 7.84124 10.4597C8.06213 10.4597 8.25168 10.5388 8.40989 10.697C8.5681 10.8552 8.6472 11.0448 8.6472 11.2657C8.6472 11.4119 8.60989 11.5463 8.53526 11.6687C8.46362 11.791 8.36661 11.8896 8.24422 11.9642C8.12482 12.0358 7.99049 12.0716 7.84124 12.0716Z" fill="#C4C4C4"/>
<path d="M15.3696 8.19572C15.3696 12.3884 12.0558 15.761 8 15.761C3.94418 15.761 0.63044 12.3884 0.63044 8.19572C0.63044 4.00308 3.94418 0.63044 8 0.63044C12.0558 0.63044 15.3696 4.00308 15.3696 8.19572Z" stroke="#979797" stroke-width="1.26088"/>
</svg>
