<svg width="45" height="45" viewBox="0 0 45 45" fill="none" xmlns="http://www.w3.org/2000/svg">
<circle cx="22.5" cy="22.5" r="22.5" fill="#ADA7C1"/>
<path d="M22.75 17.3333C23.1987 17.3333 23.5625 17.6971 23.5625 18.1458V21.9375H27.3542C27.8029 21.9375 28.1667 22.3013 28.1667 22.75C28.1667 23.1987 27.8029 23.5625 27.3542 23.5625H23.5625V27.3542C23.5625 27.8029 23.1987 28.1667 22.75 28.1667C22.3013 28.1667 21.9375 27.8029 21.9375 27.3542V23.5625H18.1458C17.6971 23.5625 17.3333 23.1987 17.3333 22.75C17.3333 22.3013 17.6971 21.9375 18.1458 21.9375H21.9375V18.1458C21.9375 17.6971 22.3013 17.3333 22.75 17.3333ZM13 16.5208C13 14.5763 14.5763 13 16.5208 13H28.9792C30.9236 13 32.5 14.5763 32.5 16.5208V28.9792C32.5 30.9236 30.9236 32.5 28.9792 32.5H16.5208C14.5763 32.5 13 30.9236 13 28.9792V16.5208ZM16.5208 14.625C15.4738 14.625 14.625 15.4738 14.625 16.5208V28.9792C14.625 30.0262 15.4738 30.875 16.5208 30.875H28.9792C30.0262 30.875 30.875 30.0262 30.875 28.9792V16.5208C30.875 15.4738 30.0262 14.625 28.9792 14.625H16.5208Z" fill="#1F1D28"/>
</svg>
