<svg width="21" height="20" viewBox="0 0 21 20" fill="none" xmlns="http://www.w3.org/2000/svg">
<path d="M5.71568 13.3354C6.52109 13.3354 7.17401 13.9883 7.17401 14.7937V16.8753C7.17401 17.6807 6.52109 18.3337 5.71568 18.3337H3.63411C2.8287 18.3337 2.17578 17.6807 2.17578 16.8753V14.7937C2.17578 13.9883 2.8287 13.3354 3.63411 13.3354H5.71568ZM5.71568 14.5854H3.63411C3.51906 14.5854 3.42578 14.6787 3.42578 14.7937V16.8753C3.42578 16.9904 3.51906 17.0837 3.63411 17.0837H5.71568C5.83074 17.0837 5.92401 16.9904 5.92401 16.8753V14.7937C5.92401 14.6787 5.83074 14.5854 5.71568 14.5854ZM8.63252 15.0003H18.2199C18.565 15.0003 18.8449 15.2802 18.8449 15.6253C18.8449 15.9417 18.6097 16.2032 18.3047 16.2447L18.2199 16.2503H8.63252C8.28735 16.2503 8.00752 15.9705 8.00752 15.6253C8.00752 15.3089 8.24266 15.0474 8.54771 15.006L8.63252 15.0003H18.2199H8.63252ZM5.71568 7.50121C6.52109 7.50121 7.17401 8.15413 7.17401 8.95958V11.0411C7.17401 11.8465 6.52109 12.4994 5.71568 12.4994H3.63411C2.8287 12.4994 2.17578 11.8465 2.17578 11.0411V8.95958C2.17578 8.15413 2.8287 7.50121 3.63411 7.50121H5.71568ZM5.71568 8.75124H3.63411C3.51906 8.75124 3.42578 8.84449 3.42578 8.95958V11.0411C3.42578 11.1562 3.51906 11.2494 3.63411 11.2494H5.71568C5.83074 11.2494 5.92401 11.1562 5.92401 11.0411V8.95958C5.92401 8.84449 5.83074 8.75124 5.71568 8.75124ZM8.63252 9.16699H18.2199C18.565 9.16699 18.8449 9.44683 18.8449 9.79199C18.8449 10.1084 18.6097 10.3699 18.3047 10.4113L18.2199 10.417H8.63252C8.28735 10.417 8.00752 10.1372 8.00752 9.79199C8.00752 9.47558 8.24266 9.21408 8.54771 9.17266L8.63252 9.16699H18.2199H8.63252ZM5.71568 1.66699C6.52109 1.66699 7.17401 2.31991 7.17401 3.12533V5.20689C7.17401 6.0123 6.52109 6.66523 5.71568 6.66523H3.63411C2.8287 6.66523 2.17578 6.0123 2.17578 5.20689V3.12533C2.17578 2.31991 2.8287 1.66699 3.63411 1.66699H5.71568ZM5.71568 2.91699H3.63411C3.51906 2.91699 3.42578 3.01027 3.42578 3.12533V5.20689C3.42578 5.32195 3.51906 5.41523 3.63411 5.41523H5.71568C5.83074 5.41523 5.92401 5.32195 5.92401 5.20689V3.12533C5.92401 3.01027 5.83074 2.91699 5.71568 2.91699ZM8.63252 3.33366H18.2199C18.565 3.33366 18.8449 3.61348 18.8449 3.95866C18.8449 4.27508 18.6097 4.53657 18.3047 4.57795L18.2199 4.58366H8.63252C8.28735 4.58366 8.00752 4.30383 8.00752 3.95866C8.00752 3.64224 8.24266 3.38075 8.54771 3.33937L8.63252 3.33366H18.2199H8.63252Z" fill="white"/>
</svg>
