<svg width="24" height="24" viewBox="0 0 24 24" fill="none" xmlns="http://www.w3.org/2000/svg">
<path d="M8.3998 9.00039C8.3998 8.66902 8.66844 8.40039 8.9998 8.40039H14.9998C15.3311 8.40039 15.5998 8.66902 15.5998 9.00039C15.5998 9.33176 15.3311 9.60039 14.9998 9.60039H8.9998C8.66844 9.60039 8.3998 9.33176 8.3998 9.00039ZM8.9998 12.0004C8.66844 12.0004 8.3998 12.2691 8.3998 12.6004C8.3998 12.9317 8.66844 13.2004 8.9998 13.2004H14.9998C15.3311 13.2004 15.5998 12.9317 15.5998 12.6004C15.5998 12.2691 15.3311 12.0004 14.9998 12.0004H8.9998ZM8.3998 16.2004C8.3998 15.8691 8.66844 15.6004 8.9998 15.6004H11.3998C11.7312 15.6004 11.9998 15.8691 11.9998 16.2004C11.9998 16.5317 11.7312 16.8004 11.3998 16.8004H8.9998C8.66844 16.8004 8.3998 16.5317 8.3998 16.2004ZM7.1998 3.00039C7.1998 2.66902 7.46844 2.40039 7.7998 2.40039C8.13117 2.40039 8.3998 2.66902 8.3998 3.00039V3.60039H11.3998V3.00039C11.3998 2.66902 11.6684 2.40039 11.9998 2.40039C12.3311 2.40039 12.5998 2.66902 12.5998 3.00039V3.60039H15.5998V3.00039C15.5998 2.66902 15.8685 2.40039 16.1998 2.40039C16.5311 2.40039 16.7998 2.66902 16.7998 3.00039V3.60039H17.3998C18.3939 3.60039 19.1998 4.40627 19.1998 5.40039V11.0783C18.8084 11.2461 18.4418 11.4897 18.1222 11.8092L17.9998 11.9316V5.40039C17.9998 5.06902 17.7311 4.80039 17.3998 4.80039H6.5998C6.26844 4.80039 5.9998 5.06902 5.9998 5.40039V19.8004C5.9998 20.1317 6.26844 20.4004 6.5998 20.4004H11.0644L10.8684 21.1842C10.8333 21.3245 10.812 21.4635 10.8032 21.6004H6.5998C5.60569 21.6004 4.7998 20.7945 4.7998 19.8004V5.40039C4.7998 4.40627 5.60569 3.60039 6.5998 3.60039H7.1998V3.00039ZM18.9708 12.6578L13.1756 18.453C12.8376 18.791 12.5979 19.2143 12.482 19.6779L12.0327 21.4754C11.8372 22.257 12.5453 22.965 13.327 22.7697L15.1245 22.3203C15.588 22.2044 16.0114 21.9647 16.3493 21.6268L22.1446 15.8315C23.021 14.955 23.021 13.5341 22.1446 12.6578C21.2682 11.7813 19.8472 11.7813 18.9708 12.6578Z" fill="white"/>
</svg>
