<svg width="20" height="19" viewBox="0 0 20 19" fill="none" xmlns="http://www.w3.org/2000/svg">
<path d="M14.4378 9.31856C16.9442 9.31856 18.9759 11.2308 18.9759 13.5898C18.9759 15.9487 16.9442 17.861 14.4378 17.861C11.9314 17.861 9.89963 15.9487 9.89963 13.5898C9.89963 11.2308 11.9314 9.31856 14.4378 9.31856ZM3.29868 10.0944L10.5675 10.0953C10.2158 10.4403 9.91564 10.8321 9.67875 11.2599L3.29868 11.2592L3.21562 11.267C3.11299 11.2867 3.04289 11.3391 3.00658 11.3726C2.97094 11.4068 2.91523 11.4723 2.89437 11.5691L2.88612 11.6475V12.8132C2.88612 13.5968 3.25742 14.1505 4.05531 14.5543C4.73698 14.8998 5.70762 15.109 6.7498 15.1391L7.01171 15.1429L7.27361 15.1391C7.98625 15.1186 8.66517 15.0142 9.24152 14.8398C9.34383 15.2225 9.49384 15.5876 9.68428 15.9296C8.81765 16.2014 7.86206 16.3078 7.01171 16.3078C4.76563 16.3078 1.78433 15.5654 1.65293 12.9915L1.64844 12.8132V11.6475C1.64844 10.7902 2.38774 10.0944 3.29868 10.0944ZM14.4378 10.873L14.3636 10.8792C14.1952 10.908 14.0624 11.0329 14.0319 11.1915L14.0252 11.2613V13.2012L11.9624 13.2015L11.8883 13.2078C11.7198 13.2365 11.5871 13.3615 11.5566 13.52L11.5499 13.5898L11.5566 13.6596C11.5871 13.8181 11.7198 13.943 11.8883 13.9718L11.9624 13.9781L14.0252 13.9778V15.9195L14.0319 15.9893C14.0624 16.1478 14.1952 16.2728 14.3636 16.3015L14.4378 16.3078L14.512 16.3015C14.6804 16.2728 14.8131 16.1478 14.8437 15.9893L14.8503 15.9195V13.9778L16.9131 13.9781L16.9873 13.9718C17.1557 13.943 17.2885 13.8181 17.319 13.6596L17.3257 13.5898L17.319 13.52C17.2885 13.3615 17.1557 13.2365 16.9873 13.2078L16.9131 13.2015L14.8503 13.2012V11.2613L14.8437 11.1915C14.8131 11.0329 14.6804 10.908 14.512 10.8792L14.4378 10.873ZM7.01171 1.55273C9.06214 1.55273 10.7248 3.11755 10.7248 5.04736C10.7248 6.97717 9.06214 8.54198 7.01171 8.54198C4.96129 8.54198 3.29868 6.97717 3.29868 5.04736C3.29868 3.11755 4.96129 1.55273 7.01171 1.55273ZM14.4378 3.1059C16.0327 3.1059 17.3257 4.32281 17.3257 5.82394C17.3257 7.32508 16.0327 8.54198 14.4378 8.54198C12.8428 8.54198 11.5499 7.32508 11.5499 5.82394C11.5499 4.32281 12.8428 3.1059 14.4378 3.1059ZM7.01171 2.71761C5.64697 2.71761 4.53636 3.76289 4.53636 5.04736C4.53636 6.33183 5.64697 7.37711 7.01171 7.37711C8.37646 7.37711 9.48707 6.33183 9.48707 5.04736C9.48707 3.76289 8.37646 2.71761 7.01171 2.71761ZM14.4378 4.27077C13.5277 4.27077 12.7876 4.96737 12.7876 5.82394C12.7876 6.68051 13.5277 7.37711 14.4378 7.37711C15.3479 7.37711 16.088 6.68051 16.088 5.82394C16.088 4.96737 15.3479 4.27077 14.4378 4.27077Z" fill="white"/>
</svg>
