<svg width="20" height="20" viewBox="0 0 20 20" fill="none" xmlns="http://www.w3.org/2000/svg">
<path d="M5.125 6.75C6.91992 6.75 8.375 5.29492 8.375 3.5C8.375 1.70508 6.91992 0.25 5.125 0.25C3.33008 0.25 1.875 1.70508 1.875 3.5C1.875 5.29492 3.33008 6.75 5.125 6.75ZM5.125 5.125C4.22753 5.125 3.5 4.39747 3.5 3.5C3.5 2.60253 4.22753 1.875 5.125 1.875C6.02247 1.875 6.75 2.60253 6.75 3.5C6.75 4.39747 6.02247 5.125 5.125 5.125ZM0.25 9.72917C0.25 8.68213 1.09879 7.83333 2.14583 7.83333H8.10417C9.15121 7.83333 10 8.68213 10 9.72917V14.875C10 17.5674 7.81739 19.75 5.125 19.75C2.43261 19.75 0.25 17.5674 0.25 14.875V9.72917ZM2.14583 9.45833C1.99626 9.45833 1.875 9.57956 1.875 9.72917V14.875C1.875 16.67 3.33008 18.125 5.125 18.125C6.91992 18.125 8.375 16.67 8.375 14.875V9.72917C8.375 9.57956 8.25378 9.45833 8.10417 9.45833H2.14583ZM8.40458 6.33222C8.87583 6.59821 9.42009 6.75 9.99989 6.75C11.7948 6.75 13.2499 5.29492 13.2499 3.5C13.2499 1.70508 11.7948 0.25 9.99989 0.25C9.42009 0.25 8.87583 0.401786 8.40458 0.667777C8.75839 1.07708 9.03681 1.5533 9.21838 2.0749C9.45021 1.94747 9.7166 1.875 9.99989 1.875C10.8973 1.875 11.6249 2.60253 11.6249 3.5C11.6249 4.39747 10.8973 5.125 9.99989 5.125C9.7166 5.125 9.45021 5.05253 9.21838 4.9251C9.03681 5.4467 8.75839 5.92292 8.40458 6.33222ZM8.76522 19.5923C9.15955 19.6952 9.57328 19.75 9.99989 19.75C12.6922 19.75 14.8749 17.5674 14.8749 14.875V9.72917C14.8749 8.68213 14.0261 7.83333 12.9791 7.83333H10.4022C10.7737 8.28313 11.0156 8.84387 11.0711 9.45833H12.9791C13.1286 9.45833 13.2499 9.57956 13.2499 9.72917V14.875C13.2499 16.6294 11.8599 18.059 10.121 18.1227C9.75441 18.6856 9.29529 19.1827 8.76522 19.5923ZM13.2796 6.33222C13.7508 6.59821 14.2951 6.75 14.8749 6.75C16.6698 6.75 18.1249 5.29492 18.1249 3.5C18.1249 1.70508 16.6698 0.25 14.8749 0.25C14.2951 0.25 13.7508 0.401786 13.2796 0.667777C13.6334 1.07708 13.9118 1.5533 14.0934 2.0749C14.3252 1.94747 14.5916 1.875 14.8749 1.875C15.7723 1.875 16.4999 2.60253 16.4999 3.5C16.4999 4.39747 15.7723 5.125 14.8749 5.125C14.5916 5.125 14.3252 5.05253 14.0934 4.9251C13.9118 5.4467 13.6334 5.92292 13.2796 6.33222ZM13.6402 19.5923C14.0346 19.6952 14.4483 19.75 14.8749 19.75C17.5672 19.75 19.7499 17.5674 19.7499 14.875V9.72917C19.7499 8.68213 18.9011 7.83333 17.8541 7.83333H15.2772C15.6487 8.28313 15.8906 8.84387 15.9461 9.45833H17.8541C18.0036 9.45833 18.1249 9.57956 18.1249 9.72917V14.875C18.1249 16.6294 16.7349 18.059 14.996 18.1227C14.6294 18.6856 14.1703 19.1827 13.6402 19.5923Z" fill="#D0C9D6"/>
</svg>
