<svg width="45" height="45" viewBox="0 0 45 45" fill="none" xmlns="http://www.w3.org/2000/svg">
<circle cx="22.5" cy="22.5" r="22.5" fill="#ADA7C1"/>
<path d="M17.125 19.75C18.9199 19.75 20.375 18.2949 20.375 16.5C20.375 14.7051 18.9199 13.25 17.125 13.25C15.3301 13.25 13.875 14.7051 13.875 16.5C13.875 18.2949 15.3301 19.75 17.125 19.75ZM17.125 18.125C16.2275 18.125 15.5 17.3975 15.5 16.5C15.5 15.6025 16.2275 14.875 17.125 14.875C18.0225 14.875 18.75 15.6025 18.75 16.5C18.75 17.3975 18.0225 18.125 17.125 18.125ZM12.25 22.7292C12.25 21.6821 13.0988 20.8333 14.1458 20.8333H20.1042C21.1512 20.8333 22 21.6821 22 22.7292V27.875C22 30.5674 19.8174 32.75 17.125 32.75C14.4326 32.75 12.25 30.5674 12.25 27.875V22.7292ZM14.1458 22.4583C13.9963 22.4583 13.875 22.5796 13.875 22.7292V27.875C13.875 29.67 15.3301 31.125 17.125 31.125C18.9199 31.125 20.375 29.67 20.375 27.875V22.7292C20.375 22.5796 20.2538 22.4583 20.1042 22.4583H14.1458ZM20.4046 19.3322C20.8758 19.5982 21.4201 19.75 21.9999 19.75C23.7948 19.75 25.2499 18.2949 25.2499 16.5C25.2499 14.7051 23.7948 13.25 21.9999 13.25C21.4201 13.25 20.8758 13.4018 20.4046 13.6678C20.7584 14.0771 21.0368 14.5533 21.2184 15.0749C21.4502 14.9475 21.7166 14.875 21.9999 14.875C22.8973 14.875 23.6249 15.6025 23.6249 16.5C23.6249 17.3975 22.8973 18.125 21.9999 18.125C21.7166 18.125 21.4502 18.0525 21.2184 17.9251C21.0368 18.4467 20.7584 18.9229 20.4046 19.3322ZM20.7652 32.5923C21.1596 32.6952 21.5733 32.75 21.9999 32.75C24.6922 32.75 26.8749 30.5674 26.8749 27.875V22.7292C26.8749 21.6821 26.0261 20.8333 24.9791 20.8333H22.4022C22.7737 21.2831 23.0156 21.8439 23.0711 22.4583H24.9791C25.1286 22.4583 25.2499 22.5796 25.2499 22.7292V27.875C25.2499 29.6294 23.8599 31.059 22.121 31.1227C21.7544 31.6856 21.2953 32.1827 20.7652 32.5923ZM25.2796 19.3322C25.7508 19.5982 26.2951 19.75 26.8749 19.75C28.6698 19.75 30.1249 18.2949 30.1249 16.5C30.1249 14.7051 28.6698 13.25 26.8749 13.25C26.2951 13.25 25.7508 13.4018 25.2796 13.6678C25.6334 14.0771 25.9118 14.5533 26.0934 15.0749C26.3252 14.9475 26.5916 14.875 26.8749 14.875C27.7723 14.875 28.4999 15.6025 28.4999 16.5C28.4999 17.3975 27.7723 18.125 26.8749 18.125C26.5916 18.125 26.3252 18.0525 26.0934 17.9251C25.9118 18.4467 25.6334 18.9229 25.2796 19.3322ZM25.6402 32.5923C26.0346 32.6952 26.4483 32.75 26.8749 32.75C29.5672 32.75 31.7499 30.5674 31.7499 27.875V22.7292C31.7499 21.6821 30.9011 20.8333 29.8541 20.8333H27.2772C27.6487 21.2831 27.8906 21.8439 27.9461 22.4583H29.8541C30.0036 22.4583 30.1249 22.5796 30.1249 22.7292V27.875C30.1249 29.6294 28.7349 31.059 26.996 31.1227C26.6294 31.6856 26.1703 32.1827 25.6402 32.5923Z" fill="#1F1D28"/>
</svg>
