<svg width="20" height="19" viewBox="0 0 20 19" fill="none" xmlns="http://www.w3.org/2000/svg">
<path d="M0.47619 3.15432H3.85238C3.96838 3.78412 4.31417 4.35484 4.82892 4.76611C5.34366 5.17737 5.9944 5.40283 6.66667 5.40283C7.33893 5.40283 7.98967 5.17737 8.50442 4.76611C9.01916 4.35484 9.36495 3.78412 9.48095 3.15432H19.5238C19.6501 3.15432 19.7712 3.1066 19.8605 3.02167C19.9498 2.93673 20 2.82153 20 2.70141C20 2.5813 19.9498 2.4661 19.8605 2.38116C19.7712 2.29623 19.6501 2.24851 19.5238 2.24851H9.48095C9.36495 1.61871 9.01916 1.04799 8.50442 0.636724C7.98967 0.225461 7.33893 0 6.66667 0C5.9944 0 5.34366 0.225461 4.82892 0.636724C4.31417 1.04799 3.96838 1.61871 3.85238 2.24851H0.47619C0.349897 2.24851 0.228776 2.29623 0.139473 2.38116C0.0501699 2.4661 0 2.5813 0 2.70141C0 2.82153 0.0501699 2.93673 0.139473 3.02167C0.228776 3.1066 0.349897 3.15432 0.47619 3.15432ZM6.66667 0.889805C7.04339 0.889805 7.41166 0.996054 7.7249 1.19512C8.03813 1.39418 8.28227 1.67711 8.42644 2.00814C8.5706 2.33917 8.60833 2.70342 8.53483 3.05484C8.46133 3.40626 8.27992 3.72906 8.01354 3.98242C7.74715 4.23577 7.40775 4.40831 7.03827 4.47821C6.66878 4.54812 6.2858 4.51224 5.93775 4.37512C5.5897 4.23801 5.29221 4.00581 5.08292 3.70789C4.87362 3.40997 4.7619 3.05972 4.7619 2.70141C4.7619 2.22095 4.96258 1.76016 5.3198 1.42041C5.67701 1.08067 6.16149 0.889805 6.66667 0.889805ZM19.5238 9.04205H16.1476C16.0316 8.41225 15.6858 7.84152 15.1711 7.43026C14.6563 7.019 14.0056 6.79354 13.3333 6.79354C12.6611 6.79354 12.0103 7.019 11.4956 7.43026C10.9808 7.84152 10.6351 8.41225 10.519 9.04205H0.47619C0.349897 9.04205 0.228776 9.08976 0.139473 9.1747C0.0501699 9.25963 0 9.37483 0 9.49495C0 9.61507 0.0501699 9.73026 0.139473 9.8152C0.228776 9.90014 0.349897 9.94785 0.47619 9.94785H10.519C10.6351 10.5777 10.9808 11.1484 11.4956 11.5596C12.0103 11.9709 12.6611 12.1964 13.3333 12.1964C14.0056 12.1964 14.6563 11.9709 15.1711 11.5596C15.6858 11.1484 16.0316 10.5777 16.1476 9.94785H19.5238C19.6501 9.94785 19.7712 9.90014 19.8605 9.8152C19.9498 9.73026 20 9.61507 20 9.49495C20 9.37483 19.9498 9.25963 19.8605 9.1747C19.7712 9.08976 19.6501 9.04205 19.5238 9.04205ZM13.3333 11.3066C12.9566 11.3066 12.5883 11.2003 12.2751 11.0012C11.9619 10.8022 11.7177 10.5193 11.5736 10.1882C11.4294 9.85719 11.3917 9.49294 11.4652 9.14152C11.5387 8.7901 11.7201 8.46731 11.9865 8.21395C12.2528 7.96059 12.5922 7.78805 12.9617 7.71815C13.3312 7.64825 13.7142 7.68412 14.0623 7.82124C14.4103 7.95836 14.7078 8.19056 14.9171 8.48847C15.1264 8.78639 15.2381 9.13665 15.2381 9.49495C15.2381 9.97542 15.0374 10.4362 14.6802 10.776C14.323 11.1157 13.8385 11.3066 13.3333 11.3066ZM19.5238 15.8356H9.48095C9.36495 15.2058 9.01916 14.6351 8.50442 14.2238C7.98967 13.8125 7.33893 13.5871 6.66667 13.5871C5.9944 13.5871 5.34366 13.8125 4.82892 14.2238C4.31417 14.6351 3.96838 15.2058 3.85238 15.8356H0.47619C0.349897 15.8356 0.228776 15.8833 0.139473 15.9682C0.0501699 16.0532 0 16.1684 0 16.2885C0 16.4086 0.0501699 16.5238 0.139473 16.6087C0.228776 16.6937 0.349897 16.7414 0.47619 16.7414H3.85238C3.96838 17.3712 4.31417 17.9419 4.82892 18.3532C5.34366 18.7644 5.9944 18.9899 6.66667 18.9899C7.33893 18.9899 7.98967 18.7644 8.50442 18.3532C9.01916 17.9419 9.36495 17.3712 9.48095 16.7414H19.5238C19.6501 16.7414 19.7712 16.6937 19.8605 16.6087C19.9498 16.5238 20 16.4086 20 16.2885C20 16.1684 19.9498 16.0532 19.8605 15.9682C19.7712 15.8833 19.6501 15.8356 19.5238 15.8356ZM6.66667 18.1001C6.28994 18.1001 5.92167 17.9938 5.60844 17.7948C5.2952 17.5957 5.05106 17.3128 4.9069 16.9818C4.76273 16.6507 4.72501 16.2865 4.7985 15.9351C4.872 15.5836 5.05341 15.2608 5.3198 15.0075C5.58618 14.7541 5.92558 14.5816 6.29507 14.5117C6.66455 14.4418 7.04754 14.4777 7.39559 14.6148C7.74364 14.7519 8.04112 14.9841 8.25042 15.282C8.45972 15.5799 8.57143 15.9302 8.57143 16.2885C8.57143 16.769 8.37075 17.2297 8.01354 17.5695C7.65632 17.9092 7.17184 18.1001 6.66667 18.1001Z" fill="#928CA6"/>
</svg>
