<svg width="20" height="20" viewBox="0 0 20 20" fill="none" xmlns="http://www.w3.org/2000/svg">
<g clip-path="url(#clip0_3621_23502)">
<path d="M5.34245 5.49609V6.11891H3.05078C2.01525 6.11891 1.17578 6.95837 1.17578 7.9939V15.0746C1.17578 16.1101 2.01525 16.9496 3.05078 16.9496H15.9674C17.0029 16.9496 17.8424 16.1101 17.8424 15.0746V7.99391C17.8424 6.95837 17.0029 6.11891 15.9674 6.11891H13.6758V5.49609C13.6758 4.46056 12.8363 3.62109 11.8008 3.62109H7.21745C6.18191 3.62109 5.34245 4.46056 5.34245 5.49609ZM7.21745 4.87109H11.8008C12.1459 4.87109 12.4258 5.15092 12.4258 5.49609V6.11891H6.59245V5.49609C6.59245 5.15092 6.87227 4.87109 7.21745 4.87109ZM5.34245 7.37109H6.59245V7.36891H12.4258V7.37109H13.6758V7.36891H15.9674C16.3126 7.36891 16.5924 7.64873 16.5924 7.99391V9.8689H14.0924V9.2439C14.0924 8.89874 13.8126 8.6189 13.4674 8.6189C13.1223 8.6189 12.8424 8.89874 12.8424 9.2439V9.8689H6.17578V9.2439C6.17578 8.89874 5.89596 8.6189 5.55078 8.6189C5.20561 8.6189 4.92578 8.89874 4.92578 9.2439V9.8689H2.42578V7.9939C2.42578 7.64873 2.70561 7.36891 3.05078 7.36891H5.34245V7.37109ZM12.8424 11.1189V12.1606C12.8424 12.5057 13.1223 12.7856 13.4674 12.7856C13.8126 12.7856 14.0924 12.5057 14.0924 12.1606V11.1189H16.5924V15.0746C16.5924 15.4197 16.3126 15.6996 15.9674 15.6996H3.05078C2.70561 15.6996 2.42578 15.4197 2.42578 15.0746V11.1189H4.92578V12.1606C4.92578 12.5057 5.20561 12.7856 5.55078 12.7856C5.89596 12.7856 6.17578 12.5057 6.17578 12.1606V11.1189H12.8424Z" fill="#9C81EA"/>
</g>
<defs>
<clipPath id="clip0_3621_23502">
<rect width="20" height="20" fill="white"/>
</clipPath>
</defs>
</svg>
