<svg width="45" height="45" viewBox="0 0 45 45" fill="none" xmlns="http://www.w3.org/2000/svg">
<circle cx="22.5" cy="22.5" r="22.5" fill="#ADA7C1"/>
<path d="M16.8753 16.0345V16.8753H13.7816C12.3836 16.8753 11.2503 18.0086 11.2503 19.4066V28.9655C11.2503 30.3634 12.3836 31.4967 13.7816 31.4967H31.2191C32.617 31.4967 33.7503 30.3634 33.7503 28.9655V19.4066C33.7503 18.0086 32.617 16.8753 31.2191 16.8753H28.1253V16.0345C28.1253 14.6366 26.992 13.5033 25.5941 13.5033H19.4066C18.0086 13.5033 16.8753 14.6366 16.8753 16.0345ZM19.4066 15.1908H25.5941C26.0601 15.1908 26.4378 15.5686 26.4378 16.0345V16.8753H18.5628V16.0345C18.5628 15.5686 18.9406 15.1908 19.4066 15.1908ZM16.8753 18.5658H18.5628V18.5628H26.4378V18.5658H28.1253V18.5628H31.2191C31.6851 18.5628 32.0628 18.9406 32.0628 19.4066V21.9378H28.6878V21.0941C28.6878 20.6281 28.3101 20.2503 27.8441 20.2503C27.3781 20.2503 27.0003 20.6281 27.0003 21.0941V21.9378H18.0003V21.0941C18.0003 20.6281 17.6226 20.2503 17.1566 20.2503C16.6906 20.2503 16.3128 20.6281 16.3128 21.0941V21.9378H12.9378V19.4066C12.9378 18.9406 13.3156 18.5628 13.7816 18.5628H16.8753V18.5658ZM27.0003 23.6253V25.0316C27.0003 25.4976 27.3781 25.8753 27.8441 25.8753C28.3101 25.8753 28.6878 25.4976 28.6878 25.0316V23.6253H32.0628V28.9655C32.0628 29.4315 31.6851 29.8092 31.2191 29.8092H13.7816C13.3156 29.8092 12.9378 29.4315 12.9378 28.9655V23.6253H16.3128V25.0316C16.3128 25.4976 16.6906 25.8753 17.1566 25.8753C17.6226 25.8753 18.0003 25.4976 18.0003 25.0316V23.6253H27.0003Z" fill="#121121"/>
</svg>
