<svg width="26" height="26" viewBox="0 0 26 26" fill="none" xmlns="http://www.w3.org/2000/svg">
<path d="M11.4286 2.7428C12.3364 1.97733 13.6636 1.97733 14.5714 2.74281L21.8839 8.90925C22.433 9.3724 22.75 10.0542 22.75 10.7726V21.3923C22.75 22.4393 21.9012 23.2881 20.8542 23.2881H17.0625C16.0155 23.2881 15.1667 22.4393 15.1667 21.3923V15.4339C15.1667 15.2844 15.0454 15.1631 14.8958 15.1631H11.1042C10.9546 15.1631 10.8333 15.2844 10.8333 15.4339V21.3923C10.8333 22.4393 9.98454 23.2881 8.9375 23.2881H5.14583C4.09879 23.2881 3.25 22.4393 3.25 21.3923V10.7726C3.25 10.0542 3.56693 9.3724 4.11615 8.90925L11.4286 2.7428ZM13.5238 3.98507C13.2212 3.72991 12.7788 3.72991 12.4762 3.98507L5.16372 10.1515C4.98065 10.3059 4.875 10.5332 4.875 10.7726V21.3923C4.875 21.5419 4.99626 21.6631 5.14583 21.6631H8.9375C9.08708 21.6631 9.20832 21.5419 9.20832 21.3923V15.4339C9.20832 14.3869 10.0571 13.5381 11.1042 13.5381H14.8958C15.9429 13.5381 16.7917 14.3869 16.7917 15.4339V21.3923C16.7917 21.5419 16.9129 21.6631 17.0625 21.6631H20.8542C21.0038 21.6631 21.125 21.5419 21.125 21.3923V10.7726C21.125 10.5332 21.0194 10.3059 20.8363 10.1515L13.5238 3.98507Z" fill="#D0C9D6"/>
</svg>
