<svg width="45" height="45" viewBox="0 0 45 45" fill="none" xmlns="http://www.w3.org/2000/svg">
<circle cx="22.5" cy="22.5" r="22.5" fill="#ADA7C1"/>
<path d="M16.6019 27.1689C17.6489 27.1689 18.4977 28.0177 18.4977 29.0648V31.7708C18.4977 32.8179 17.6489 33.6667 16.6019 33.6667H13.8958C12.8488 33.6667 12 32.8179 12 31.7708V29.0648C12 28.0177 12.8488 27.1689 13.8958 27.1689H16.6019ZM16.6019 28.7939H13.8958C13.7463 28.7939 13.625 28.9153 13.625 29.0648V31.7708C13.625 31.9204 13.7463 32.0417 13.8958 32.0417H16.6019C16.7514 32.0417 16.8727 31.9204 16.8727 31.7708V29.0648C16.8727 28.9153 16.7514 28.7939 16.6019 28.7939ZM20.3938 29.3333H32.8573C33.306 29.3333 33.6698 29.6971 33.6698 30.1458C33.6698 30.5572 33.3641 30.8971 32.9676 30.951L32.8573 30.9583H20.3938C19.945 30.9583 19.5813 30.5946 19.5813 30.1458C19.5813 29.7345 19.8869 29.3945 20.2835 29.3407L20.3938 29.3333H32.8573H20.3938ZM16.6019 19.5845C17.6489 19.5845 18.4977 20.4333 18.4977 21.4804V24.1863C18.4977 25.2334 17.6489 26.0821 16.6019 26.0821H13.8958C12.8488 26.0821 12 25.2334 12 24.1863V21.4804C12 20.4333 12.8488 19.5845 13.8958 19.5845H16.6019ZM16.6019 21.2095H13.8958C13.7463 21.2095 13.625 21.3307 13.625 21.4804V24.1863C13.625 24.3359 13.7463 24.4571 13.8958 24.4571H16.6019C16.7514 24.4571 16.8727 24.3359 16.8727 24.1863V21.4804C16.8727 21.3307 16.7514 21.2095 16.6019 21.2095ZM20.3938 21.75H32.8573C33.306 21.75 33.6698 22.1138 33.6698 22.5625C33.6698 22.9738 33.3641 23.3138 32.9676 23.3676L32.8573 23.375H20.3938C19.945 23.375 19.5813 23.0112 19.5813 22.5625C19.5813 22.1512 19.8869 21.8112 20.2835 21.7574L20.3938 21.75H32.8573H20.3938ZM16.6019 12C17.6489 12 18.4977 12.8488 18.4977 13.8958V16.6019C18.4977 17.6489 17.6489 18.4977 16.6019 18.4977H13.8958C12.8488 18.4977 12 17.6489 12 16.6019V13.8958C12 12.8488 12.8488 12 13.8958 12H16.6019ZM16.6019 13.625H13.8958C13.7463 13.625 13.625 13.7463 13.625 13.8958V16.6019C13.625 16.7514 13.7463 16.8727 13.8958 16.8727H16.6019C16.7514 16.8727 16.8727 16.7514 16.8727 16.6019V13.8958C16.8727 13.7463 16.7514 13.625 16.6019 13.625ZM20.3938 14.1667H32.8573C33.306 14.1667 33.6698 14.5304 33.6698 14.9792C33.6698 15.3905 33.3641 15.7304 32.9676 15.7842L32.8573 15.7917H20.3938C19.945 15.7917 19.5813 15.4279 19.5813 14.9792C19.5813 14.5678 19.8869 14.2279 20.2835 14.1741L20.3938 14.1667H32.8573H20.3938Z" fill="#1F1D28"/>
</svg>
