<svg width="20" height="21" viewBox="0 0 20 21" fill="none" xmlns="http://www.w3.org/2000/svg">
<path d="M12.545 19.1812H12.438C8.78314 19.1812 7.02153 17.7407 6.71696 14.5139C6.68404 14.1764 6.93099 13.8718 7.27671 13.8389C7.60598 13.806 7.91878 14.0611 7.95171 14.3986C8.19042 16.9834 9.40875 17.9465 12.4462 17.9465H12.5532C15.9035 17.9465 17.0889 16.7611 17.0889 13.4108V8.04381C17.0889 4.69353 15.9035 3.50818 12.5532 3.50818H12.4462C9.39228 3.50818 8.17396 4.48774 7.95171 7.12186C7.91055 7.45936 7.62244 7.71454 7.27671 7.68162C6.93099 7.65692 6.68404 7.35235 6.70873 7.01485C6.98861 3.73867 8.75845 2.27344 12.438 2.27344H12.545C16.5867 2.27344 18.3154 4.00208 18.3154 8.04381V13.4108C18.3154 17.4526 16.5867 19.1812 12.545 19.1812Z" fill="white"/>
<path d="M12.3482 11.347H2.98065C2.64316 11.347 2.36328 11.0672 2.36328 10.7297C2.36328 10.3922 2.64316 10.1123 2.98065 10.1123H12.3482C12.6857 10.1123 12.9656 10.3922 12.9656 10.7297C12.9656 11.0672 12.6857 11.347 12.3482 11.347Z" fill="white"/>
<path d="M4.81432 14.1033C4.65791 14.1033 4.50151 14.0457 4.37804 13.9222L1.62044 11.1646C1.38173 10.9259 1.38173 10.5308 1.62044 10.2921L4.37804 7.53451C4.61676 7.29579 5.01187 7.29579 5.25059 7.53451C5.48931 7.77322 5.48931 8.16834 5.25059 8.40706L2.92927 10.7283L5.25059 13.0497C5.48931 13.2884 5.48931 13.6835 5.25059 13.9222C5.13535 14.0457 4.97072 14.1033 4.81432 14.1033Z" fill="white"/>
</svg>
