<svg width="20" height="21" viewBox="0 0 20 21" fill="none" xmlns="http://www.w3.org/2000/svg">
<path d="M4.33324 18.4235C3.9999 18.4235 3.58324 18.3402 3.2499 18.2568C2.91657 18.1735 2.7499 18.0068 2.58324 17.8402L2.4999 17.7568C2.41657 17.6735 2.33324 17.5068 2.33324 17.4235C2.33324 17.2568 2.41657 17.1735 2.58324 17.0902C3.2499 16.7568 3.83324 16.1735 4.16657 15.5068C4.16657 15.4235 4.16657 15.3402 4.2499 15.2568C1.91657 13.8402 0.583236 11.5902 0.583236 9.25684C0.499903 5.09017 4.7499 1.75684 9.9999 1.75684C15.2499 1.75684 19.4999 5.09017 19.4999 9.25684C19.4999 13.4235 15.2499 16.8402 9.9999 16.8402C9.4999 16.8402 8.91657 16.8402 8.41657 16.7568C7.16657 17.8402 5.7499 18.4235 4.33324 18.4235ZM3.4999 17.5068C4.91657 17.8402 6.58324 17.2568 8.08324 16.0068C8.08324 15.9235 8.2499 15.8402 8.33324 15.9235C8.83324 16.0068 9.41657 16.0068 9.9999 16.0068C14.7499 16.0068 18.6666 13.0068 18.6666 9.25684C18.6666 5.50684 14.7499 2.59017 9.9999 2.59017C5.2499 2.59017 1.33324 5.59017 1.33324 9.25684C1.33324 11.4235 2.66657 13.4235 4.91657 14.6735C5.08324 14.7568 5.16657 15.0068 5.08324 15.1735C5.08324 15.4235 4.9999 15.6735 4.83324 15.9235C4.4999 16.5902 3.9999 17.0902 3.4999 17.5068Z" fill="white"/>
</svg>
