<svg width="21" height="21" viewBox="0 0 21 21" fill="none" xmlns="http://www.w3.org/2000/svg">
<path d="M7.09375 8.03284C8.47446 8.03284 9.59375 6.91354 9.59375 5.53284C9.59375 4.15213 8.47446 3.03284 7.09375 3.03284C5.71304 3.03284 4.59375 4.15213 4.59375 5.53284C4.59375 6.91354 5.71304 8.03284 7.09375 8.03284ZM7.09375 6.78284C6.40339 6.78284 5.84375 6.22319 5.84375 5.53284C5.84375 4.84248 6.40339 4.28284 7.09375 4.28284C7.78411 4.28284 8.34375 4.84248 8.34375 5.53284C8.34375 6.22319 7.78411 6.78284 7.09375 6.78284ZM3.34375 10.3245C3.34375 9.51909 3.99667 8.86617 4.80208 8.86617H9.38542C10.1908 8.86617 10.8438 9.51909 10.8438 10.3245V14.2828C10.8438 16.3539 9.16482 18.0328 7.09375 18.0328C5.02268 18.0328 3.34375 16.3539 3.34375 14.2828V10.3245ZM4.80208 10.1162C4.68703 10.1162 4.59375 10.2094 4.59375 10.3245V14.2828C4.59375 15.6636 5.71304 16.7828 7.09375 16.7828C8.47446 16.7828 9.59375 15.6636 9.59375 14.2828V10.3245C9.59375 10.2094 9.5005 10.1162 9.38542 10.1162H4.80208ZM9.6165 7.71147C9.979 7.91608 10.3977 8.03284 10.8437 8.03284C12.2243 8.03284 13.3437 6.91354 13.3437 5.53284C13.3437 4.15213 12.2243 3.03284 10.8437 3.03284C10.3977 3.03284 9.979 3.1496 9.6165 3.3542C9.88867 3.66905 10.1028 4.03538 10.2425 4.4366C10.4208 4.33859 10.6258 4.28284 10.8437 4.28284C11.534 4.28284 12.0937 4.84248 12.0937 5.53284C12.0937 6.22319 11.534 6.78284 10.8437 6.78284C10.6258 6.78284 10.4208 6.72709 10.2425 6.62907C10.1028 7.03029 9.88867 7.39662 9.6165 7.71147ZM9.89392 17.9115C10.1973 17.9907 10.5155 18.0328 10.8437 18.0328C12.9147 18.0328 14.5937 16.3539 14.5937 14.2828V10.3245C14.5937 9.51909 13.9408 8.86617 13.1353 8.86617H11.1532C11.4389 9.21217 11.625 9.6435 11.6677 10.1162H13.1353C13.2503 10.1162 13.3437 10.2094 13.3437 10.3245V14.2828C13.3437 15.6323 12.2744 16.7321 10.9368 16.7811C10.6548 17.2141 10.3017 17.5964 9.89392 17.9115ZM13.3665 7.71147C13.729 7.91608 14.1477 8.03284 14.5937 8.03284C15.9743 8.03284 17.0937 6.91354 17.0937 5.53284C17.0937 4.15213 15.9743 3.03284 14.5937 3.03284C14.1477 3.03284 13.729 3.1496 13.3665 3.3542C13.6387 3.66905 13.8528 4.03538 13.9925 4.4366C14.1708 4.33859 14.3758 4.28284 14.5937 4.28284C15.284 4.28284 15.8437 4.84248 15.8437 5.53284C15.8437 6.22319 15.284 6.78284 14.5937 6.78284C14.3758 6.78284 14.1708 6.72709 13.9925 6.62907C13.8528 7.03029 13.6387 7.39662 13.3665 7.71147ZM13.6439 17.9115C13.9473 17.9907 14.2655 18.0328 14.5937 18.0328C16.6647 18.0328 18.3437 16.3539 18.3437 14.2828V10.3245C18.3437 9.51909 17.6908 8.86617 16.8853 8.86617H14.9032C15.1889 9.21217 15.375 9.6435 15.4177 10.1162H16.8853C17.0003 10.1162 17.0937 10.2094 17.0937 10.3245V14.2828C17.0937 15.6323 16.0244 16.7321 14.6868 16.7811C14.4048 17.2141 14.0517 17.5964 13.6439 17.9115Z" fill="white"/>
</svg>
