<svg width="45" height="45" viewBox="0 0 45 45" fill="none" xmlns="http://www.w3.org/2000/svg">
<circle cx="22.5" cy="22.5" r="22.5" fill="#ADA7C1"/>
<path d="M27.7917 21.8333C31.0824 21.8333 33.75 24.5009 33.75 27.7917C33.75 31.0824 31.0824 33.75 27.7917 33.75C24.5009 33.75 21.8333 31.0824 21.8333 27.7917C21.8333 24.5009 24.5009 21.8333 27.7917 21.8333ZM13.1667 22.9156L22.7102 22.9169C22.2485 23.3981 21.8544 23.9448 21.5433 24.5416L13.1667 24.5406L13.0576 24.5514C12.9229 24.5788 12.8308 24.652 12.7832 24.6988C12.7364 24.7464 12.6632 24.8377 12.6358 24.9728L12.625 25.0822V26.7083C12.625 27.8014 13.1125 28.5738 14.1601 29.1372C15.0551 29.6191 16.3295 29.911 17.6978 29.953L18.0417 29.9583L18.3855 29.953C19.3212 29.9243 20.2126 29.7787 20.9693 29.5354C21.1036 30.0694 21.3006 30.5787 21.5506 31.0558C20.4128 31.4349 19.1581 31.5833 18.0417 31.5833C15.0927 31.5833 11.1784 30.5477 11.0059 26.9571L11 26.7083V25.0822C11 23.8863 11.9707 22.9156 13.1667 22.9156ZM27.7917 24.0017L27.6943 24.0104C27.4732 24.0506 27.2989 24.2249 27.2588 24.446L27.25 24.5434V27.2496L24.5417 27.25L24.4443 27.2588C24.2232 27.2989 24.0489 27.4732 24.0088 27.6943L24 27.7917L24.0088 27.8891C24.0489 28.1102 24.2232 28.2845 24.4443 28.3246L24.5417 28.3333L27.25 28.3329V31.0417L27.2588 31.1391C27.2989 31.3602 27.4732 31.5345 27.6943 31.5746L27.7917 31.5833L27.8891 31.5746C28.1102 31.5345 28.2845 31.3602 28.3246 31.1391L28.3333 31.0417V28.3329L31.0417 28.3333L31.1391 28.3246C31.3602 28.2845 31.5345 28.1102 31.5746 27.8891L31.5833 27.7917L31.5746 27.6943C31.5345 27.4732 31.3602 27.2989 31.1391 27.2588L31.0417 27.25L28.3333 27.2496V24.5434L28.3246 24.446C28.2845 24.2249 28.1102 24.0506 27.8891 24.0104L27.7917 24.0017ZM18.0417 11C20.7338 11 22.9167 13.1829 22.9167 15.875C22.9167 18.5671 20.7338 20.75 18.0417 20.75C15.3496 20.75 13.1667 18.5671 13.1667 15.875C13.1667 13.1829 15.3496 11 18.0417 11ZM27.7917 13.1667C29.8857 13.1667 31.5833 14.8643 31.5833 16.9583C31.5833 19.0524 29.8857 20.75 27.7917 20.75C25.6976 20.75 24 19.0524 24 16.9583C24 14.8643 25.6976 13.1667 27.7917 13.1667ZM18.0417 12.625C16.2498 12.625 14.7917 14.0832 14.7917 15.875C14.7917 17.6668 16.2498 19.125 18.0417 19.125C19.8335 19.125 21.2917 17.6668 21.2917 15.875C21.2917 14.0832 19.8335 12.625 18.0417 12.625ZM27.7917 14.7917C26.5968 14.7917 25.625 15.7634 25.625 16.9583C25.625 18.1533 26.5968 19.125 27.7917 19.125C28.9866 19.125 29.9583 18.1533 29.9583 16.9583C29.9583 15.7634 28.9866 14.7917 27.7917 14.7917Z" fill="#1F1D28"/>
</svg>
