<svg width="20" height="20" viewBox="0 0 20 20" fill="none" xmlns="http://www.w3.org/2000/svg">
<path d="M9.99907 1.66309C13.374 1.66309 16.1296 4.32538 16.2456 7.70397L16.2491 7.91308V11.3273L17.3991 13.9573C17.4566 14.0888 17.4863 14.2309 17.4863 14.3746C17.4863 14.9498 17.02 15.4163 16.4446 15.4163L12.4991 15.4175C12.4991 16.7982 11.3798 17.9175 9.99907 17.9175C8.66765 17.9175 7.57936 16.8767 7.50332 15.5643L7.4987 15.4156L3.56147 15.4163C3.41868 15.4163 3.27743 15.3868 3.14646 15.33C2.61879 15.1008 2.37683 14.4873 2.60603 13.9596L3.74908 11.328V7.913C3.74958 4.45068 6.54248 1.66309 9.99907 1.66309ZM11.2487 15.4156L8.74907 15.4175C8.74907 16.1078 9.30873 16.6675 9.99907 16.6675C10.6488 16.6675 11.1828 16.1718 11.2433 15.5378L11.2487 15.4156ZM9.99907 2.91309C7.23228 2.91309 4.99948 5.14163 4.99908 7.91308V11.5878L3.87909 14.1663H16.1262L14.9991 11.5886L14.9992 7.9238L14.9961 7.73613C14.9035 5.04157 12.7004 2.91309 9.99907 2.91309Z" fill="white"/>
</svg>
