<svg width="20" height="21" viewBox="0 0 20 21" fill="none" xmlns="http://www.w3.org/2000/svg">
<path d="M14.7948 12.4941C15.8298 12.4941 16.6688 13.3331 16.6688 14.3682V14.8477C16.6688 15.593 16.4025 16.3136 15.9179 16.8798C14.6101 18.4077 12.6208 19.1617 9.99967 19.1617C7.3781 19.1617 5.38975 18.4075 4.0845 16.8789C3.60137 16.3131 3.33594 15.5936 3.33594 14.8496V14.3682C3.33594 13.3331 4.17498 12.4941 5.21 12.4941H14.7948ZM14.7948 13.7441H5.21C4.86534 13.7441 4.58594 14.0236 4.58594 14.3682V14.8496C4.58594 15.296 4.7452 15.7277 5.03508 16.0671C6.0795 17.2902 7.71773 17.9117 9.99967 17.9117C12.2816 17.9117 13.9213 17.2902 14.9683 16.067C15.2591 15.7272 15.4188 15.2948 15.4188 14.8477V14.3682C15.4188 14.0236 15.1394 13.7441 14.7948 13.7441ZM9.99967 2.49805C12.3008 2.49805 14.1663 4.36353 14.1663 6.66471C14.1663 8.96591 12.3008 10.8314 9.99967 10.8314C7.69846 10.8314 5.83299 8.96591 5.83299 6.66471C5.83299 4.36353 7.69846 2.49805 9.99967 2.49805ZM9.99967 3.74805C8.38884 3.74805 7.08299 5.05389 7.08299 6.66471C7.08299 8.27555 8.38884 9.5814 9.99967 9.5814C11.6105 9.5814 12.9163 8.27555 12.9163 6.66471C12.9163 5.05389 11.6105 3.74805 9.99967 3.74805Z" fill="white"/>
</svg>
