<svg width="21" height="20" viewBox="0 0 21 20" fill="none" xmlns="http://www.w3.org/2000/svg">
<path d="M17.5118 16.075L14.6366 13.25C15.5642 12.0854 16.0676 10.6472 16.0657 9.16667C16.0657 7.84813 15.669 6.5592 14.9256 5.46287C14.1822 4.36654 13.1256 3.51206 11.8894 3.00747C10.6532 2.50289 9.29294 2.37087 7.9806 2.6281C6.66827 2.88534 5.46281 3.52027 4.51667 4.45262C3.57052 5.38497 2.92619 6.57286 2.66515 7.86607C2.40411 9.15927 2.53809 10.4997 3.05014 11.7179C3.56218 12.9361 4.42931 13.9773 5.54185 14.7098C6.6544 15.4423 7.9624 15.8333 9.30045 15.8333C10.8029 15.8352 12.2623 15.3392 13.4442 14.425L16.311 17.2583C16.3896 17.3364 16.4831 17.3984 16.5862 17.4407C16.6892 17.4831 16.7998 17.5048 16.9114 17.5048C17.023 17.5048 17.1336 17.4831 17.2366 17.4407C17.3397 17.3984 17.4332 17.3364 17.5118 17.2583C17.5911 17.1809 17.654 17.0887 17.6969 16.9871C17.7399 16.8856 17.762 16.7767 17.762 16.6667C17.762 16.5567 17.7399 16.4477 17.6969 16.3462C17.654 16.2446 17.5911 16.1525 17.5118 16.075ZM4.22648 9.16667C4.22648 8.17776 4.52406 7.21106 5.0816 6.38882C5.63913 5.56657 6.43158 4.92571 7.35872 4.54727C8.28587 4.16883 9.30607 4.06982 10.2903 4.26274C11.2746 4.45567 12.1787 4.93187 12.8883 5.63114C13.5979 6.3304 14.0811 7.22131 14.2769 8.19122C14.4727 9.16112 14.3722 10.1665 13.9882 11.0801C13.6041 11.9937 12.9538 12.7746 12.1194 13.324C11.285 13.8734 10.304 14.1667 9.30045 14.1667C7.95475 14.1667 6.66416 13.6399 5.71261 12.7022C4.76106 11.7645 4.22648 10.4928 4.22648 9.16667Z" fill="white"/>
</svg>
